<svg id="Layer_1"   height="70.967" viewBox="0 0 512 512" width="70.967" xmlns="http://www.w3.org/2000/svg"><g><path d="m47.134 273.082h-17.134c-8.284 0-15 6.716-15 15v16.066c0 43.708 35.559 79.267 79.267 79.267h17.133c8.284 0 15-6.716 15-15v-16.066c0-43.708-35.558-79.267-79.266-79.267z" fill="#c30047"/><circle clip-rule="evenodd" cx="159.6" cy="272.067" fill="#7dd5f4" fill-rule="evenodd" r="15"/><circle clip-rule="evenodd" cx="215.833" cy="239.933" fill="#a0eade" fill-rule="evenodd" r="15"/><circle clip-rule="evenodd" cx="215.833" cy="304.2" fill="#a0eade" fill-rule="evenodd" r="15"/><path d="m258.649 214.508c-3.704-7.41-.7-16.42 6.709-20.125l16.067-8.033c7.41-3.705 16.419-.701 20.125 6.708 3.704 7.41.7 16.42-6.709 20.125l-16.067 8.033c-7.381 3.691-16.404.73-20.125-6.708z" fill="#d2ffdc"/><path d="m281.426 357.783-16.067-8.033c-7.409-3.705-10.413-12.715-6.709-20.125 3.704-7.409 12.715-10.414 20.125-6.708l16.067 8.033c7.409 3.705 10.413 12.715 6.709 20.125-3.71 7.42-12.726 10.408-20.125 6.708z" fill="#d2ffdc"/><path d="m304.2 287.067h-16.066c-8.284 0-15-6.716-15-15s6.716-15 15-15h16.066c8.284 0 15 6.716 15 15s-6.716 15-15 15z" fill="#d2ffdc"/><path d="m246.166 90.318-41.181-82.047c-2.545-5.07-7.733-8.271-13.406-8.271h-176.579c-8.284 0-15 6.716-15 15v482c0 8.284 6.716 15 15 15h32.134c47.466 0 86.939-34.866 94.154-80.333 39.543 0 49.379-32.964 49.379-47.133 0-26.312-21.363-47.133-47.134-47.133h-47.208c-35.852 0-65.77-28.47-66.317-64.318-.557-36.488 28.963-66.348 65.325-66.348h80.334c8.284 0 15-6.716 15-15v-33.2h13.342c34.502-.002 58.023-36.493 42.157-68.217z" fill="#ffdcd2"/><path d="m0 497c0 8.284 6.716 15 15 15h32.134c47.466 0 86.939-34.866 94.154-80.333 39.543 0 49.379-32.964 49.379-47.133 0-26.312-21.363-47.133-47.134-47.133h-47.208c-35.853 0-65.77-28.47-66.317-64.318h-30.008z" fill="#ffc1c4"/><g fill="#00a08c"><path d="m497 447.733h-16.067c-8.284 0-15-6.716-15-15s6.716-15 15-15h16.067c8.284 0 15 6.716 15 15s-6.716 15-15 15z"/><path d="m384.533 447.733h-16.066c-8.284 0-15-6.716-15-15s6.716-15 15-15h16.066c8.284 0 15 6.716 15 15s-6.716 15-15 15z"/><path d="m432.733 512c-8.284 0-15-6.716-15-15v-16.067c0-8.284 6.716-15 15-15s15 6.716 15 15v16.067c0 8.284-6.715 15-15 15z"/><path d="m432.733 399.533c-8.284 0-15-6.716-15-15v-16.066c0-8.284 6.716-15 15-15s15 6.716 15 15v16.066c0 8.284-6.715 15-15 15z"/><path d="m409.273 388.039-22.172-22.151c-5.861-5.855-15.358-5.85-21.213.01-5.855 5.861-5.851 15.358.01 21.213l22.172 22.151c5.861 5.855 15.358 5.85 21.213-.01 5.856-5.861 5.851-15.358-.01-21.213z"/><path d="m456.193 388.039 22.172-22.151c5.861-5.855 15.358-5.85 21.213.01 5.855 5.861 5.851 15.358-.01 21.213l-22.172 22.151c-5.861 5.855-15.358 5.85-21.213-.01-5.855-5.861-5.85-15.358.01-21.213z"/><path d="m499.568 478.355-22.172-22.151c-5.861-5.855-15.358-5.85-21.213.01-5.855 5.861-5.851 15.358.01 21.213l22.172 22.151c5.861 5.855 15.358 5.85 21.213-.01 5.856-5.86 5.851-15.358-.01-21.213z"/><path d="m365.899 478.355 22.172-22.151c5.861-5.855 15.358-5.85 21.213.01 5.855 5.861 5.851 15.358-.01 21.213l-22.172 22.151c-5.861 5.855-15.358 5.85-21.213-.01s-5.851-15.358.01-21.213z"/></g><ellipse cx="432.733" cy="432.733" fill="#dff473" rx="63.2" ry="63.2" transform="matrix(.707 -.707 .707 .707 -179.244 432.733)"/><path d="m432.733 495.933v-126.4c34.849 0 63.2 28.352 63.2 63.2s-28.351 63.2-63.2 63.2z" fill="#8ee26b"/></g></svg>